<svg xmlns="http://www.w3.org/2000/svg" viewBox="0 0 32 32"><defs><linearGradient id="b" x1="0" x2="0" y1="0" y2="1"><stop offset="0%" stop-color="#050a08"/><stop offset="55%" stop-color="#0a1520"/><stop offset="100%" stop-color="#0d1f10"/></linearGradient><linearGradient id="d" x1="0" x2="0" y1="0" y2="1"><stop offset="0%" stop-color="#0d2210"/><stop offset="100%" stop-color="#050c06"/></linearGradient><linearGradient id="e" x1="0" x2="0" y1="0" y2="1"><stop offset="0%" stop-color="#5a8fa8" stop-opacity=".12"/><stop offset="100%" stop-color="#5a8fa8" stop-opacity="0"/></linearGradient><linearGradient id="f" x1="0" x2="0" y1="0" y2="1"><stop offset="0%" stop-color="#dce4ea" stop-opacity=".95"/><stop offset="100%" stop-color="#72a8c0" stop-opacity=".7"/></linearGradient><radialGradient id="c" cx="50%" cy="68%" r="45%"><stop offset="0%" stop-color="#3d6070" stop-opacity=".22"/><stop offset="100%" stop-color="#3d6070" stop-opacity="0"/></radialGradient><clipPath id="a"><rect width="32" height="32" rx="6"/></clipPath></defs><rect width="32" height="32" fill="#06090a" rx="6"/><g clip-path="url(#a)"><path fill="url(#b)" d="M0 0h32v32H0z"/><path fill="url(#c)" d="M0 0h32v32H0z"/><path fill="#dce4ea" d="M3.5 3.5h.7v.7h-.7z" opacity=".85"/><path fill="#dce4ea" d="M10 1.8h.5v.5H10z" opacity=".65"/><path fill="#dce4ea" d="M22 4h.6v.6H22z" opacity=".75"/><path fill="#dce4ea" d="M27.5 2h.5v.5h-.5z" opacity=".7"/><path fill="#dce4ea" d="M6.5 7.5h.45v.45H6.5z" opacity=".5"/><path fill="#dce4ea" d="M29 8h.4v.4H29z" opacity=".45"/><path fill="#dce4ea" d="M2 10h.4v.4H2z" opacity=".35"/><path fill="url(#d)" d="M0 20h32v12H0z"/><path fill="url(#e)" d="M0 17h32v7H0z"/><path fill="#0f2912" d="M0 22q1-4 2 0 1-5 2-1 1-2 2 1 1-4 2-1 1-4 2 1 1-3 2-1 1-3 2 1 1-5 2-1 1-3 2 1 1-5 2-1 1-3 2 1 1-5 2-1 1-2 2 1 1-5 2-1 1-3 2 1 1-3 2 0v10H0Z" opacity=".7"/><path fill="#132e15" d="M0 24q1.5-5 2.5-1 1-3 2 1 1-7 2-2 1-2 2.5 2 1-6 2-1 1-3 2.5 1 1-6 2-1 1-3 2.5 1 1-7 2-2 1-2 2.5 2 1-6 2-1 1-3 2.5 1 1-6 2-1 1-3 2 1 .5-3 1 0v8H0Z"/><path fill="#183d1a" d="M-1 26q2-6 3-1 .5-3 1.5 2 1-9 2-3Q6 21 7 26q1-7 2-2 .5-2 1.5 3 1-8 2-2 .5-3 1.5 1 1-7 2-2 .5-3 1.5 2 1-8 2-2 .5-2 1.5 3 1-8 2-3 .5-3 1.5 2 1-8 2-2 .5-2 1.5 3 1-8 2-3 .5-3 1.5 2 .5-3 1.5 0v6H-1Z"/><path fill="#2a5e2e" d="M2 32q.3-11 0-15 .5 5 1 15Z" opacity=".7"/><path fill="#3a7040" d="M4 32q.4-10 .2-14 .5 5 .8 14Z" opacity=".5"/><path fill="#2a5e2e" d="M5 32q.5-12 0-18 .3 7 1 18Z" opacity=".85"/><path fill="#1e4d20" d="M7 32q.3-10 0-14 .5 5 .8 14Z" opacity=".75"/><path fill="#3a7040" d="M8.5 32q.3-11 0-16 .4 6 .8 16Z" opacity=".55"/><path fill="#2a5e2e" d="M10 32q.5-13 0-17 .4 6 1 17Z" opacity=".7"/><path fill="#1e4d20" d="M12 32q.3-10 0-14 .5 5 .8 14Z" opacity=".65"/><path fill="#3a7040" d="M13.5 32q.2-9 0-12 .4 4 .7 12Z" opacity=".45"/><path fill="#1e4d20" d="M18 32q.3-11 0-15 .6 5 1 15Z" opacity=".65"/><path fill="#3a7040" d="M20 32q.3-9 0-13 .5 4 .8 13Z" opacity=".5"/><path fill="#2a5e2e" d="M21.5 32q.5-12 0-17 .5 7 1 17Z" opacity=".72"/><path fill="#1e4d20" d="M23 32q.3-10 0-14 .6 5 1 14Z" opacity=".68"/><path fill="#3a7040" d="M24.5 32q.3-9 0-13 .5 5 .8 13Z" opacity=".5"/><path fill="#2a5e2e" d="M26 32q.5-13 0-19 .3 7 1 19Z" opacity=".82"/><path fill="#2a5e2e" d="M28 32q.3-11 0-15 .6 5 1 15Z" opacity=".65"/><path fill="#3a7040" d="M29.5 32q.2-9 0-13 .5 5 .7 13Z" opacity=".5"/><text x="16" y="21" fill="url(#f)" font-family="Georgia, 'Times New Roman', serif" font-size="15" font-weight="400" letter-spacing="-.5" opacity=".82" text-anchor="middle">J</text></g></svg>