<svg viewBox="0 0 900 320" xmlns="http://www.w3.org/2000/svg">
  <g transform="translate(10,10)">
    <rect class="k" x="0"   y="0" width="70" height="50" rx="4"/>
    <rect class="k" x="78"  y="0" width="50" height="50" rx="4"/>
    <rect class="k" x="136" y="0" width="50" height="50" rx="4"/>
    <rect class="k" x="194" y="0" width="50" height="50" rx="4"/>
    <rect class="k" x="252" y="0" width="50" height="50" rx="4"/>
    <rect class="k" x="310" y="0" width="50" height="50" rx="4"/>
    <rect class="k" x="368" y="0" width="50" height="50" rx="4"/>
    <rect class="k" x="426" y="0" width="50" height="50" rx="4"/>
    <rect class="k" x="484" y="0" width="50" height="50" rx="4"/>
    <rect class="k" x="542" y="0" width="50" height="50" rx="4"/>
    <rect class="k" x="600" y="0" width="50" height="50" rx="4"/>
    <rect class="k" x="658" y="0" width="50" height="50" rx="4"/>
    <rect class="k" x="716" y="0" width="50" height="50" rx="4"/>
    <rect class="k" x="774" y="0" width="90" height="50" rx="4"/>
  </g>
  <g transform="translate(10,68)">
    <rect class="k" x="0"   y="0" width="90" height="50" rx="4"/>
    <rect class="k" x="98"  y="0" width="50" height="50" rx="4"/>
    <rect class="k" x="156" y="0" width="50" height="50" rx="4"/>
    <rect class="k" x="214" y="0" width="50" height="50" rx="4"/>
    <rect class="k" x="272" y="0" width="50" height="50" rx="4"/>
    <rect class="k" x="330" y="0" width="50" height="50" rx="4"/>
    <rect class="k" x="388" y="0" width="50" height="50" rx="4"/>
    <rect class="k" x="446" y="0" width="50" height="50" rx="4"/>
    <rect class="k" x="504" y="0" width="50" height="50" rx="4"/>
    <rect class="k" x="562" y="0" width="50" height="50" rx="4"/>
    <rect class="k" x="620" y="0" width="50" height="50" rx="4"/>
    <rect class="k" x="678" y="0" width="50" height="50" rx="4"/>
    <rect class="k" x="736" y="0" width="50" height="50" rx="4"/>
    <path class="k" d="M 834 0 h 30 v 108 h -50 v -58 h -20 v -50 z" />
  </g>
  <g transform="translate(10,126)">
    <rect class="k" x="0"   y="0" width="110" height="50" rx="4"/>
    <rect class="k" x="118" y="0" width="50" height="50" rx="4"/>
    <rect class="k" x="176" y="0" width="50" height="50" rx="4"/>
    <rect class="k" x="234" y="0" width="50" height="50" rx="4"/>
    <rect class="k" x="292" y="0" width="50" height="50" rx="4"/>
    <rect class="k" x="350" y="0" width="50" height="50" rx="4"/>
    <rect class="k" x="408" y="0" width="50" height="50" rx="4"/>
    <rect class="k" x="466" y="0" width="50" height="50" rx="4"/>
    <rect class="k" x="524" y="0" width="50" height="50" rx="4"/>
    <rect class="k" x="582" y="0" width="50" height="50" rx="4"/>
    <rect class="k" x="640" y="0" width="50" height="50" rx="4"/>
    <rect class="k" x="698" y="0" width="50" height="50" rx="4"/>
    <rect class="k" x="756" y="0" width="50" height="50" rx="4"/>
  </g>
  <g transform="translate(10,184)">
    <rect class="k" x="0"   y="0" width="90" height="50" rx="4"/>
    <rect class="k" x="98"  y="0" width="50" height="50" rx="4"/>
    <rect class="k" x="156" y="0" width="50" height="50" rx="4"/>
    <rect class="k" x="214" y="0" width="50" height="50" rx="4"/>
    <rect class="k" x="272" y="0" width="50" height="50" rx="4"/>
    <rect class="k" x="330" y="0" width="50" height="50" rx="4"/>
    <rect class="k" x="388" y="0" width="50" height="50" rx="4"/>
    <rect class="k" x="446" y="0" width="50" height="50" rx="4"/>
    <rect class="k" x="504" y="0" width="50" height="50" rx="4"/>
    <rect class="k" x="562" y="0" width="50" height="50" rx="4"/>
    <rect class="k" x="620" y="0" width="50" height="50" rx="4"/>
    <rect class="k" x="678" y="0" width="50" height="50" rx="4"/>
    <rect class="k" x="736" y="0" width="128" height="50" rx="4"/>
  </g>
  <g transform="translate(10,242)">
    <rect class="k" x="0"   y="0" width="90"  height="50" rx="4"/>
    <rect class="k" x="98"  y="0" width="70"  height="50" rx="4"/>
    <rect class="k" x="176" y="0" width="70"  height="50" rx="4"/>
    <rect class="k" x="254" y="0" width="356" height="50" rx="4"/>
    <rect class="k" x="618" y="0" width="70"  height="50" rx="4"/>
    <rect class="k" x="696" y="0" width="70"  height="50" rx="4"/>
    <rect class="k" x="774" y="0" width="90"  height="50" rx="4"/>
  </g>
</svg>