<svg version="1.1" viewBox="0.0 0.0 600.0 371.0" fill="none" stroke="none" stroke-linecap="square" stroke-miterlimit="10" width="600" height="371" xmlns:xlink="http://www.w3.org/1999/xlink" xmlns="http://www.w3.org/2000/svg"><path fill="#ffffff" d="M0 0L600.0 0L600.0 371.0L0 371.0L0 0Z" fill-rule="nonzero"/><path stroke="#cccccc" stroke-width="1.0" stroke-linecap="butt" d="M77.5 61.5L77.5 300.5" fill-rule="nonzero"/><path stroke="#cccccc" stroke-width="1.0" stroke-linecap="butt" d="M182.5 61.5L182.5 300.5" fill-rule="nonzero"/><path stroke="#cccccc" stroke-width="1.0" stroke-linecap="butt" d="M286.5 61.5L286.5 300.5" fill-rule="nonzero"/><path stroke="#cccccc" stroke-width="1.0" stroke-linecap="butt" d="M391.5 61.5L391.5 300.5" fill-rule="nonzero"/><path stroke="#cccccc" stroke-width="1.0" stroke-linecap="butt" d="M494.5 61.5L494.5 300.5" fill-rule="nonzero"/><path stroke="#333333" stroke-width="1.0" stroke-linecap="butt" d="M77.5 300.5L581.5 300.5" fill-rule="nonzero"/><path stroke="#cccccc" stroke-width="1.0" stroke-linecap="butt" d="M77.5 252.5L581.5 252.5" fill-rule="nonzero"/><path stroke="#cccccc" stroke-width="1.0" stroke-linecap="butt" d="M77.5 205.5L581.5 205.5" fill-rule="nonzero"/><path stroke="#cccccc" stroke-width="1.0" stroke-linecap="butt" d="M77.5 157.5L581.5 157.5" fill-rule="nonzero"/><path stroke="#cccccc" stroke-width="1.0" stroke-linecap="butt" d="M77.5 109.5L581.5 109.5" fill-rule="nonzero"/><path stroke="#cccccc" stroke-width="1.0" stroke-linecap="butt" d="M77.5 61.5L581.5 61.5" fill-rule="nonzero"/><clipPath id="id_0"><path d="M77.55 61.916668L581.45 61.916668L581.45 300.45L77.55 300.45L77.55 61.916668Z" clip-rule="nonzero"/></clipPath><path stroke="#4285f4" stroke-width="2.0" stroke-linecap="butt" clip-path="url(#id_0)" d="M77.55 281.36734L95.2207 243.202L112.8914 205.03667L129.99208 185.954L164.76346 166.87134L182.43416 128.706L286.17828 109.62334L373.39175 90.540665L581.45 71.458" fill-rule="nonzero"/><path fill="#000000" fill-opacity="0.0" clip-path="url(#id_0)" d="M80.55 281.36734C80.55 283.0242 79.206856 284.36734 77.55 284.36734C75.89314 284.36734 74.55 283.0242 74.55 281.36734C74.55 279.71048 75.89314 278.36734 77.55 278.36734C79.206856 278.36734 80.55 279.71048 80.55 281.36734Z" fill-rule="nonzero"/><path fill="#000000" fill-opacity="0.0" clip-path="url(#id_0)" d="M98.2207 243.202C98.2207 244.85886 96.877556 246.202 95.2207 246.202C93.56385 246.202 92.2207 244.85886 92.2207 243.202C92.2207 241.54515 93.56385 240.202 95.2207 240.202C96.877556 240.202 98.2207 241.54515 98.2207 243.202Z" fill-rule="nonzero"/><path fill="#000000" fill-opacity="0.0" clip-path="url(#id_0)" d="M115.8914 205.03667C115.8914 206.69353 114.548256 208.03667 112.8914 208.03667C111.23455 208.03667 109.8914 206.69353 109.8914 205.03667C109.8914 203.3798 111.23455 202.03667 112.8914 202.03667C114.548256 202.03667 115.8914 203.3798 115.8914 205.03667Z" fill-rule="nonzero"/><path fill="#000000" fill-opacity="0.0" clip-path="url(#id_0)" d="M132.99208 185.954C132.99208 187.61086 131.64894 188.954 129.99208 188.954C128.33522 188.954 126.99208 187.61086 126.99208 185.954C126.99208 184.29715 128.33522 182.954 129.99208 182.954C131.64894 182.954 132.99208 184.29715 132.99208 185.954Z" fill-rule="nonzero"/><path fill="#000000" fill-opacity="0.0" clip-path="url(#id_0)" d="M167.76346 166.87134C167.76346 168.52818 166.42032 169.87134 164.76346 169.87134C163.10661 169.87134 161.76346 168.52818 161.76346 166.87134C161.76346 165.21448 163.10661 163.87134 164.76346 163.87134C166.42032 163.87134 167.76346 165.21448 167.76346 166.87134Z" fill-rule="nonzero"/><path fill="#000000" fill-opacity="0.0" clip-path="url(#id_0)" d="M185.43416 128.706C185.43416 130.36285 184.09102 131.706 182.43416 131.706C180.77731 131.706 179.43416 130.36285 179.43416 128.706C179.43416 127.04915 180.77731 125.706 182.43416 125.706C184.09102 125.706 185.43416 127.04915 185.43416 128.706Z" fill-rule="nonzero"/><path fill="#000000" fill-opacity="0.0" clip-path="url(#id_0)" d="M289.17828 109.62334C289.17828 111.28019 287.83514 112.62334 286.17828 112.62334C284.52142 112.62334 283.17828 111.28019 283.17828 109.62334C283.17828 107.96648 284.52142 106.62334 286.17828 106.62334C287.83514 106.62334 289.17828 107.96648 289.17828 109.62334Z" fill-rule="nonzero"/><path fill="#000000" fill-opacity="0.0" clip-path="url(#id_0)" d="M376.39175 90.540665C376.39175 92.19752 375.04858 93.540665 373.39175 93.540665C371.7349 93.540665 370.39175 92.19752 370.39175 90.540665C370.39175 88.88381 371.7349 87.540665 373.39175 87.540665C375.04858 87.540665 376.39175 88.88381 376.39175 90.540665Z" fill-rule="nonzero"/><path fill="#000000" fill-opacity="0.0" clip-path="url(#id_0)" d="M584.45 71.458C584.45 73.11485 583.1069 74.458 581.45 74.458C579.79315 74.458 578.45 73.11485 578.45 71.458C578.45 69.80115 579.79315 68.458 581.45 68.458C583.1069 68.458 584.45 69.80115 584.45 71.458Z" fill-rule="nonzero"/><path fill="#000000" d="M317.42188 349.45L317.42188 340.85626L320.39062 340.85626Q321.39062 340.85626 321.92188 340.98126Q322.65625 341.15314 323.17188 341.59064Q323.85938 342.16876 324.1875 343.075Q324.53125 343.96564 324.53125 345.10626Q324.53125 346.09064 324.29688 346.84064Q324.07812 347.59064 323.71875 348.09064Q323.35938 348.59064 322.92188 348.8719Q322.5 349.15314 321.90625 349.3094Q321.3125 349.45 320.53125 349.45L317.42188 349.45ZM318.5625 348.4344L320.39062 348.4344Q321.25 348.4344 321.73438 348.27814Q322.21875 348.1219 322.5 347.825Q322.90625 347.4344 323.125 346.7469Q323.35938 346.0594 323.35938 345.09064Q323.35938 343.7469 322.90625 343.02814Q322.46875 342.29376 321.84375 342.04376Q321.375 341.8719 320.375 341.8719L318.5625 341.8719L318.5625 348.4344ZM330.35938 348.6844Q329.76562 349.1844 329.21875 349.3875Q328.6875 349.59064 328.0625 349.59064Q327.03125 349.59064 326.48438 349.09064Q325.9375 348.59064 325.9375 347.8094Q325.9375 347.35626 326.14062 346.98126Q326.34375 346.59064 326.6875 346.3719Q327.03125 346.1375 327.45312 346.02814Q327.75 345.9344 328.39062 345.85626Q329.65625 345.71564 330.26562 345.4969Q330.26562 345.27814 330.26562 345.23126Q330.26562 344.575 329.96875 344.3094Q329.5625 343.96564 328.76562 343.96564Q328.03125 343.96564 327.67188 344.23126Q327.3125 344.48126 327.14062 345.1375L326.10938 344.9969Q326.25 344.34064 326.57812 343.9344Q326.90625 343.52814 327.51562 343.3094Q328.125 343.09064 328.92188 343.09064Q329.71875 343.09064 330.21875 343.27814Q330.71875 343.46564 330.95312 343.7469Q331.1875 344.02814 331.28125 344.46564Q331.32812 344.73126 331.32812 345.4344L331.32812 346.84064Q331.32812 348.3094 331.39062 348.7Q331.46875 349.09064 331.67188 349.45L330.5625 349.45Q330.40625 349.1219 330.35938 348.6844ZM330.26562 346.325Q329.6875 346.5594 328.54688 346.73126Q327.89062 346.825 327.625 346.95Q327.35938 347.0594 327.20312 347.27814Q327.0625 347.4969 327.0625 347.77814Q327.0625 348.2 327.375 348.48126Q327.70312 348.7625 328.3125 348.7625Q328.92188 348.7625 329.39062 348.4969Q329.875 348.23126 330.09375 347.7625Q330.26562 347.40314 330.26562 346.71564L330.26562 346.325ZM335.59375 348.5125L335.75 349.4344Q335.29688 349.52814 334.95312 349.52814Q334.375 349.52814 334.0625 349.35626Q333.75 349.16876 333.60938 348.8719Q333.48438 348.575 333.48438 347.6219L333.48438 344.04376L332.71875 344.04376L332.71875 343.23126L333.48438 343.23126L333.48438 341.6844L334.53125 341.0594L334.53125 343.23126L335.59375 343.23126L335.59375 344.04376L334.53125 344.04376L334.53125 347.6844Q334.53125 348.1375 334.57812 348.2625Q334.64062 348.3875 334.76562 348.46564Q334.89062 348.54376 335.125 348.54376Q335.3125 348.54376 335.59375 348.5125ZM340.54688 347.45L341.64062 347.575Q341.39062 348.52814 340.6875 349.0594Q339.98438 349.59064 338.90625 349.59064Q337.54688 349.59064 336.73438 348.7469Q335.9375 347.90314 335.9375 346.3875Q335.9375 344.825 336.75 343.96564Q337.5625 343.09064 338.84375 343.09064Q340.09375 343.09064 340.875 343.9344Q341.67188 344.77814 341.67188 346.325Q341.67188 346.41876 341.67188 346.60626L337.03125 346.60626Q337.09375 347.6375 337.60938 348.1844Q338.125 348.71564 338.90625 348.71564Q339.48438 348.71564 339.89062 348.41876Q340.3125 348.10626 340.54688 347.45ZM337.09375 345.7469L340.5625 345.7469Q340.5 344.95 340.17188 344.5594Q339.65625 343.95 338.85938 343.95Q338.125 343.95 337.625 344.4344Q337.14062 344.91876 337.09375 345.7469Z" fill-rule="nonzero"/><path fill="#000000" d="M29.550013 199.26146L20.956263 201.54271L20.956263 200.37083L26.596888 199.05833Q27.471888 198.85521 28.346888 198.69896Q26.971888 198.37083 26.753138 198.30833L20.956263 196.68333L20.956263 195.30833L25.300013 194.07396Q26.925013 193.62083 28.346888 193.40208Q27.534388 193.24583 26.471888 192.98021L20.956263 191.63646L20.956263 190.49583L29.550013 192.83958L29.550013 193.94896L23.003138 195.74583Q22.190638 195.98021 22.003138 196.02708Q22.581263 196.15208 23.003138 196.27708L29.550013 198.08958L29.550013 199.26146ZM29.550013 189.76146L20.956263 189.76146L20.956263 186.51146Q20.956263 185.66771 21.034388 185.21458Q21.143763 184.57396 21.440638 184.15208Q21.737513 183.71458 22.268763 183.46458Q22.800013 183.19896 23.440638 183.19896Q24.534388 183.19896 25.300013 183.90208Q26.050013 184.58958 26.050013 186.41771L26.050013 188.62083L29.550013 188.62083L29.550013 189.76146ZM25.050013 188.62083L25.050013 186.40208Q25.050013 185.29271 24.643763 184.83958Q24.221888 184.37083 23.471888 184.37083Q22.940638 184.37083 22.565638 184.65208Q22.175013 184.91771 22.050013 185.35521Q21.971888 185.65208 21.971888 186.41771L21.971888 188.62083L25.050013 188.62083ZM29.550013 181.79271L20.956263 181.79271L20.956263 180.07396L27.034388 178.04271Q27.893763 177.76146 28.315638 177.63646Q27.846888 177.49583 26.940638 177.18333L20.956263 175.12083L20.956263 173.58958L29.550013 173.58958L29.550013 174.68333L22.362513 174.68333L29.550013 177.18333L29.550013 178.21458L22.237513 180.69896L29.550013 180.69896L29.550013 181.79271Z" fill-rule="nonzero"/><path fill="#000000" d="M65.05 300.21564Q65.05 298.6844 65.3625 297.7625Q65.675 296.825 66.28438 296.325Q66.90938 295.825 67.84688 295.825Q68.53438 295.825 69.05 296.10626Q69.58125 296.3875 69.925 296.91876Q70.26875 297.4344 70.45625 298.1844Q70.64375 298.9344 70.64375 300.21564Q70.64375 301.73126 70.33125 302.65314Q70.03438 303.575 69.40938 304.09064Q68.8 304.59064 67.84688 304.59064Q66.6125 304.59064 65.89375 303.7Q65.05 302.6375 65.05 300.21564ZM66.12813 300.21564Q66.12813 302.325 66.62813 303.02814Q67.12813 303.73126 67.84688 303.73126Q68.58125 303.73126 69.06563 303.02814Q69.56563 302.325 69.56563 300.21564Q69.56563 298.09064 69.06563 297.40314Q68.58125 296.7 67.83125 296.7Q67.1125 296.7 66.675 297.3094Q66.12813 298.09064 66.12813 300.21564Z" fill-rule="nonzero"/><path fill="#000000" d="M63.596874 255.72772L63.596874 256.74335L57.909374 256.74335Q57.909374 256.36835 58.034374 256.00897Q58.253124 255.43085 58.721874 254.86835Q59.20625 254.30585 60.1125 253.57147Q61.51875 252.41522 62.003124 251.74335Q62.503124 251.07147 62.503124 250.47772Q62.503124 249.85272 62.05 249.43085Q61.596874 248.99335 60.878124 248.99335Q60.1125 248.99335 59.659374 249.44647Q59.20625 249.8996 59.190624 250.7121L58.1125 250.60272Q58.221874 249.38397 58.940624 248.75897Q59.675 248.11835 60.909374 248.11835Q62.14375 248.11835 62.8625 248.80585Q63.58125 249.49335 63.58125 250.50897Q63.58125 251.0246 63.3625 251.5246Q63.159374 252.00897 62.659374 252.57147Q62.175 253.11835 61.05 254.07147Q60.096874 254.86835 59.815624 255.16522Q59.55 255.44647 59.378124 255.72772L63.596874 255.72772ZM65.05 254.49335L66.15938 254.3996Q66.28438 255.2121 66.72188 255.61835Q67.175 256.0246 67.81563 256.0246Q68.56563 256.0246 69.09688 255.44647Q69.62813 254.86835 69.62813 253.93085Q69.62813 253.0246 69.1125 252.50897Q68.6125 251.97772 67.78438 251.97772Q67.28438 251.97772 66.8625 252.2121Q66.45625 252.44647 66.22188 252.80585L65.2375 252.68085L66.06563 248.2746L70.34688 248.2746L70.34688 249.2746L66.90938 249.2746L66.45625 251.5871Q67.22188 251.04022 68.06563 251.04022Q69.19063 251.04022 69.95625 251.82147Q70.7375 252.60272 70.7375 253.8371Q70.7375 254.99335 70.06563 255.85272Q69.2375 256.88397 67.81563 256.88397Q66.64375 256.88397 65.89375 256.22772Q65.15938 255.57147 65.05 254.49335Z" fill-rule="nonzero"/><path fill="#000000" d="M58.05 206.78667L59.159374 206.69292Q59.284374 207.50542 59.721874 207.91167Q60.175 208.31792 60.815624 208.31792Q61.565624 208.31792 62.096874 207.73979Q62.628124 207.16167 62.628124 206.22417Q62.628124 205.31792 62.1125 204.80229Q61.6125 204.27104 60.784374 204.27104Q60.284374 204.27104 59.8625 204.50542Q59.45625 204.73979 59.221874 205.09917L58.2375 204.97417L59.065624 200.56792L63.346874 200.56792L63.346874 201.56792L59.909374 201.56792L59.45625 203.88042Q60.221874 203.33354 61.065624 203.33354Q62.190624 203.33354 62.95625 204.11479Q63.7375 204.89604 63.7375 206.13042Q63.7375 207.28667 63.065624 208.14604Q62.2375 209.17729 60.815624 209.17729Q59.64375 209.17729 58.89375 208.52104Q58.159374 207.86479 58.05 206.78667ZM65.05 204.80229Q65.05 203.27104 65.3625 202.34917Q65.675 201.41167 66.28438 200.91167Q66.90938 200.41167 67.84688 200.41167Q68.53438 200.41167 69.05 200.69292Q69.58125 200.97417 69.925 201.50542Q70.26875 202.02104 70.45625 202.77104Q70.64375 203.52104 70.64375 204.80229Q70.64375 206.31792 70.33125 207.23979Q70.03438 208.16167 69.40938 208.67729Q68.8 209.17729 67.84688 209.17729Q66.6125 209.17729 65.89375 208.28667Q65.05 207.22417 65.05 204.80229ZM66.12813 204.80229Q66.12813 206.91167 66.62813 207.61479Q67.12813 208.31792 67.84688 208.31792Q68.58125 208.31792 69.06563 207.61479Q69.56563 206.91167 69.56563 204.80229Q69.56563 202.67729 69.06563 201.98979Q68.58125 201.28667 67.83125 201.28667Q67.1125 201.28667 66.675 201.89604Q66.12813 202.67729 66.12813 204.80229Z" fill-rule="nonzero"/><path fill="#000000" d="M58.1125 153.86125L58.1125 152.84563L63.675 152.84563L63.675 153.67375Q62.8625 154.54875 62.05 156.00188Q61.253124 157.43938 60.815624 158.97063Q60.4875 160.04875 60.409374 161.33L59.315624 161.33Q59.33125 160.31438 59.70625 158.87688Q60.096874 157.43938 60.8 156.11125Q61.51875 154.78313 62.33125 153.86125L58.1125 153.86125ZM65.05 159.08L66.15938 158.98625Q66.28438 159.79875 66.72188 160.205Q67.175 160.61125 67.81563 160.61125Q68.56563 160.61125 69.09688 160.03313Q69.62813 159.455 69.62813 158.5175Q69.62813 157.61125 69.1125 157.09563Q68.6125 156.56438 67.78438 156.56438Q67.28438 156.56438 66.8625 156.79875Q66.45625 157.03313 66.22188 157.3925L65.2375 157.2675L66.06563 152.86125L70.34688 152.86125L70.34688 153.86125L66.90938 153.86125L66.45625 156.17375Q67.22188 155.62688 68.06563 155.62688Q69.19063 155.62688 69.95625 156.40813Q70.7375 157.18938 70.7375 158.42375Q70.7375 159.58 70.06563 160.43938Q69.2375 161.47063 67.81563 161.47063Q66.64375 161.47063 65.89375 160.81438Q65.15938 160.15813 65.05 159.08Z" fill-rule="nonzero"/><path fill="#000000" d="M55.01875 113.62334L53.971874 113.62334L53.971874 106.90459Q53.58125 107.26396 52.95625 107.63896Q52.346874 107.99834 51.8625 108.17021L51.8625 107.15459Q52.7375 106.73271 53.39375 106.15459Q54.065624 105.56084 54.346874 104.99834L55.01875 104.99834L55.01875 113.62334ZM58.05 109.38896Q58.05 107.85771 58.3625 106.93584Q58.675 105.99834 59.284374 105.49834Q59.909374 104.99834 60.846874 104.99834Q61.534374 104.99834 62.05 105.27959Q62.58125 105.56084 62.925 106.09209Q63.26875 106.60771 63.45625 107.35771Q63.64375 108.10771 63.64375 109.38896Q63.64375 110.90459 63.33125 111.82646Q63.034374 112.74834 62.409374 113.26396Q61.8 113.76396 60.846874 113.76396Q59.6125 113.76396 58.89375 112.87334Q58.05 111.81084 58.05 109.38896ZM59.128124 109.38896Q59.128124 111.49834 59.628124 112.20146Q60.128124 112.90459 60.846874 112.90459Q61.58125 112.90459 62.065624 112.20146Q62.565624 111.49834 62.565624 109.38896Q62.565624 107.26396 62.065624 106.57646Q61.58125 105.87334 60.83125 105.87334Q60.1125 105.87334 59.675 106.48271Q59.128124 107.26396 59.128124 109.38896ZM65.05 109.38896Q65.05 107.85771 65.3625 106.93584Q65.675 105.99834 66.28438 105.49834Q66.90938 104.99834 67.84688 104.99834Q68.53438 104.99834 69.05 105.27959Q69.58125 105.56084 69.925 106.09209Q70.26875 106.60771 70.45625 107.35771Q70.64375 108.10771 70.64375 109.38896Q70.64375 110.90459 70.33125 111.82646Q70.03438 112.74834 69.40938 113.26396Q68.8 113.76396 67.84688 113.76396Q66.6125 113.76396 65.89375 112.87334Q65.05 111.81084 65.05 109.38896ZM66.12813 109.38896Q66.12813 111.49834 66.62813 112.20146Q67.12813 112.90459 67.84688 112.90459Q68.58125 112.90459 69.06563 112.20146Q69.56563 111.49834 69.56563 109.38896Q69.56563 107.26396 69.06563 106.57646Q68.58125 105.87334 67.83125 105.87334Q67.1125 105.87334 66.675 106.48271Q66.12813 107.26396 66.12813 109.38896Z" fill-rule="nonzero"/><path fill="#000000" d="M55.01875 65.916664L53.971874 65.916664L53.971874 59.197914Q53.58125 59.55729 52.95625 59.93229Q52.346874 60.291664 51.8625 60.46354L51.8625 59.447914Q52.7375 59.02604 53.39375 58.447914Q54.065624 57.854164 54.346874 57.291664L55.01875 57.291664L55.01875 65.916664ZM63.596874 64.90104L63.596874 65.916664L57.909374 65.916664Q57.909374 65.541664 58.034374 65.18229Q58.253124 64.604164 58.721874 64.041664Q59.20625 63.479164 60.1125 62.74479Q61.51875 61.58854 62.003124 60.916664Q62.503124 60.24479 62.503124 59.65104Q62.503124 59.02604 62.05 58.604164Q61.596874 58.166664 60.878124 58.166664Q60.1125 58.166664 59.659374 58.61979Q59.20625 59.072914 59.190624 59.885414L58.1125 59.77604Q58.221874 58.55729 58.940624 57.93229Q59.675 57.291664 60.909374 57.291664Q62.14375 57.291664 62.8625 57.979164Q63.58125 58.666664 63.58125 59.68229Q63.58125 60.197914 63.3625 60.697914Q63.159374 61.18229 62.659374 61.74479Q62.175 62.291664 61.05 63.24479Q60.096874 64.041664 59.815624 64.33854Q59.55 64.61979 59.378124 64.90104L63.596874 64.90104ZM65.05 63.666664L66.15938 63.572914Q66.28438 64.385414 66.72188 64.791664Q67.175 65.197914 67.81563 65.197914Q68.56563 65.197914 69.09688 64.61979Q69.62813 64.041664 69.62813 63.104164Q69.62813 62.197914 69.1125 61.68229Q68.6125 61.15104 67.78438 61.15104Q67.28438 61.15104 66.8625 61.385414Q66.45625 61.61979 66.22188 61.979164L65.2375 61.854164L66.06563 57.447914L70.34688 57.447914L70.34688 58.447914L66.90938 58.447914L66.45625 60.760414Q67.22188 60.21354 68.06563 60.21354Q69.19063 60.21354 69.95625 60.99479Q70.7375 61.77604 70.7375 63.010414Q70.7375 64.166664 70.06563 65.02604Q69.2375 66.05729 67.81563 66.05729Q66.64375 66.05729 65.89375 65.40104Q65.15938 64.74479 65.05 63.666664Z" fill-rule="nonzero"/><path fill="#000000" d="M51.596874 316.4344L51.596874 317.45L45.909374 317.45Q45.909374 317.075 46.034374 316.71564Q46.253124 316.1375 46.721874 315.575Q47.20625 315.0125 48.1125 314.27814Q49.51875 313.1219 50.003124 312.45Q50.503124 311.77814 50.503124 311.1844Q50.503124 310.5594 50.05 310.1375Q49.596874 309.7 48.878124 309.7Q48.1125 309.7 47.659374 310.15314Q47.20625 310.60626 47.190624 311.41876L46.1125 311.3094Q46.221874 310.09064 46.940624 309.46564Q47.675 308.825 48.909374 308.825Q50.14375 308.825 50.8625 309.5125Q51.58125 310.2 51.58125 311.21564Q51.58125 311.73126 51.3625 312.23126Q51.159374 312.71564 50.659374 313.27814Q50.175 313.825 49.05 314.77814Q48.096874 315.575 47.815624 315.8719Q47.55 316.15314 47.378124 316.4344L51.596874 316.4344ZM53.05 313.21564Q53.05 311.6844 53.3625 310.7625Q53.675 309.825 54.284374 309.325Q54.909374 308.825 55.846874 308.825Q56.534374 308.825 57.05 309.10626Q57.58125 309.3875 57.925 309.91876Q58.26875 310.4344 58.45625 311.1844Q58.64375 311.9344 58.64375 313.21564Q58.64375 314.73126 58.33125 315.65314Q58.034374 316.575 57.409374 317.09064Q56.8 317.59064 55.846874 317.59064Q54.6125 317.59064 53.89375 316.7Q53.05 315.6375 53.05 313.21564ZM54.128124 313.21564Q54.128124 315.325 54.628124 316.02814Q55.128124 316.73126 55.846874 316.73126Q56.58125 316.73126 57.065624 316.02814Q57.565624 315.325 57.565624 313.21564Q57.565624 311.09064 57.065624 310.40314Q56.58125 309.7 55.83125 309.7Q55.1125 309.7 54.675 310.3094Q54.128124 311.09064 54.128124 313.21564ZM65.59688 316.4344L65.59688 317.45L59.909374 317.45Q59.909374 317.075 60.034374 316.71564Q60.253124 316.1375 60.721874 315.575Q61.20625 315.0125 62.1125 314.27814Q63.51875 313.1219 64.00313 312.45Q64.50313 311.77814 64.50313 311.1844Q64.50313 310.5594 64.05 310.1375Q63.596874 309.7 62.878124 309.7Q62.1125 309.7 61.659374 310.15314Q61.20625 310.60626 61.190624 311.41876L60.1125 311.3094Q60.221874 310.09064 60.940624 309.46564Q61.675 308.825 62.909374 308.825Q64.14375 308.825 64.8625 309.5125Q65.58125 310.2 65.58125 311.21564Q65.58125 311.73126 65.3625 312.23126Q65.15938 312.71564 64.65938 313.27814Q64.175 313.825 63.05 314.77814Q62.096874 315.575 61.815624 315.8719Q61.55 316.15314 61.378124 316.4344L65.59688 316.4344ZM67.05 315.1844L68.1125 315.04376Q68.28438 315.9344 68.72188 316.34064Q69.15938 316.73126 69.78438 316.73126Q70.53438 316.73126 71.05 316.21564Q71.56563 315.7 71.56563 314.9344Q71.56563 314.21564 71.08125 313.7469Q70.6125 313.2625 69.87813 313.2625Q69.58125 313.2625 69.12813 313.3875L69.25313 312.45Q69.3625 312.46564 69.425 312.46564Q70.09688 312.46564 70.62813 312.1219Q71.175 311.7625 71.175 311.02814Q71.175 310.45 70.78438 310.075Q70.39375 309.6844 69.76875 309.6844Q69.15938 309.6844 68.7375 310.075Q68.33125 310.46564 68.22188 311.23126L67.15938 311.04376Q67.34688 309.9969 68.03438 309.41876Q68.72188 308.825 69.7375 308.825Q70.44063 308.825 71.03438 309.1375Q71.62813 309.4344 71.94063 309.95Q72.25313 310.46564 72.25313 311.0594Q72.25313 311.60626 71.95625 312.075Q71.65938 312.52814 71.08125 312.79376Q71.83125 312.96564 72.25313 313.52814Q72.675 314.075 72.675 314.91876Q72.675 316.04376 71.84688 316.825Q71.03438 317.60626 69.78438 317.60626Q68.65938 317.60626 67.90938 316.9344Q67.15938 316.2469 67.05 315.1844ZM73.925 314.8719L73.925 313.8094L77.175 313.8094L77.175 314.8719L73.925 314.8719ZM78.05 313.21564Q78.05 311.6844 78.3625 310.7625Q78.675 309.825 79.28438 309.325Q79.90938 308.825 80.84688 308.825Q81.53438 308.825 82.05 309.10626Q82.58125 309.3875 82.925 309.91876Q83.26875 310.4344 83.45625 311.1844Q83.64375 311.9344 83.64375 313.21564Q83.64375 314.73126 83.33125 315.65314Q83.03438 316.575 82.40938 317.09064Q81.8 317.59064 80.84688 317.59064Q79.6125 317.59064 78.89375 316.7Q78.05 315.6375 78.05 313.21564ZM79.12813 313.21564Q79.12813 315.325 79.62813 316.02814Q80.12813 316.73126 80.84688 316.73126Q81.58125 316.73126 82.06563 316.02814Q82.56563 315.325 82.56563 313.21564Q82.56563 311.09064 82.06563 310.40314Q81.58125 309.7 80.83125 309.7Q80.1125 309.7 79.675 310.3094Q79.12813 311.09064 79.12813 313.21564ZM85.1125 309.98126L85.1125 308.96564L90.675 308.96564L90.675 309.79376Q89.8625 310.66876 89.05 312.1219Q88.25313 313.5594 87.81563 315.09064Q87.4875 316.16876 87.40938 317.45L86.31563 317.45Q86.33125 316.4344 86.70625 314.9969Q87.09688 313.5594 87.8 312.23126Q88.51875 310.90314 89.33125 309.98126L85.1125 309.98126ZM91.925 314.8719L91.925 313.8094L95.175 313.8094L95.175 314.8719L91.925 314.8719ZM96.05 313.21564Q96.05 311.6844 96.3625 310.7625Q96.675 309.825 97.28438 309.325Q97.90938 308.825 98.84688 308.825Q99.53438 308.825 100.05 309.10626Q100.58125 309.3875 100.925 309.91876Q101.26875 310.4344 101.45625 311.1844Q101.64375 311.9344 101.64375 313.21564Q101.64375 314.73126 101.33125 315.65314Q101.03438 316.575 100.40938 317.09064Q99.8 317.59064 98.84688 317.59064Q97.6125 317.59064 96.89375 316.7Q96.05 315.6375 96.05 313.21564ZM97.12813 313.21564Q97.12813 315.325 97.62813 316.02814Q98.12813 316.73126 98.84688 316.73126Q99.58125 316.73126 100.06563 316.02814Q100.56563 315.325 100.56563 313.21564Q100.56563 311.09064 100.06563 310.40314Q99.58125 309.7 98.83125 309.7Q98.1125 309.7 97.675 310.3094Q97.12813 311.09064 97.12813 313.21564ZM107.01875 317.45L105.97188 317.45L105.97188 310.73126Q105.58125 311.09064 104.95625 311.46564Q104.34688 311.825 103.8625 311.9969L103.8625 310.98126Q104.7375 310.5594 105.39375 309.98126Q106.06563 309.3875 106.34688 308.825L107.01875 308.825L107.01875 317.45Z" fill-rule="nonzero"/><path fill="#000000" d="M156.48103 316.4344L156.48103 317.45L150.79353 317.45Q150.79353 317.075 150.91853 316.71564Q151.13728 316.1375 151.60603 315.575Q152.09041 315.0125 152.99666 314.27814Q154.40291 313.1219 154.88728 312.45Q155.38728 311.77814 155.38728 311.1844Q155.38728 310.5594 154.93416 310.1375Q154.48103 309.7 153.76228 309.7Q152.99666 309.7 152.54353 310.15314Q152.09041 310.60626 152.07478 311.41876L150.99666 311.3094Q151.10603 310.09064 151.82478 309.46564Q152.55916 308.825 153.79353 308.825Q155.02791 308.825 155.74666 309.5125Q156.46541 310.2 156.46541 311.21564Q156.46541 311.73126 156.24666 312.23126Q156.04353 312.71564 155.54353 313.27814Q155.05916 313.825 153.93416 314.77814Q152.98103 315.575 152.69978 315.8719Q152.43416 316.15314 152.26228 316.4344L156.48103 316.4344ZM157.93416 313.21564Q157.93416 311.6844 158.24666 310.7625Q158.55916 309.825 159.16853 309.325Q159.79353 308.825 160.73103 308.825Q161.41853 308.825 161.93416 309.10626Q162.46541 309.3875 162.80916 309.91876Q163.15291 310.4344 163.34041 311.1844Q163.52791 311.9344 163.52791 313.21564Q163.52791 314.73126 163.21541 315.65314Q162.91853 316.575 162.29353 317.09064Q161.68416 317.59064 160.73103 317.59064Q159.49666 317.59064 158.77791 316.7Q157.93416 315.6375 157.93416 313.21564ZM159.01228 313.21564Q159.01228 315.325 159.51228 316.02814Q160.01228 316.73126 160.73103 316.73126Q161.46541 316.73126 161.94978 316.02814Q162.44978 315.325 162.44978 313.21564Q162.44978 311.09064 161.94978 310.40314Q161.46541 309.7 160.71541 309.7Q159.99666 309.7 159.55916 310.3094Q159.01228 311.09064 159.01228 313.21564ZM170.48103 316.4344L170.48103 317.45L164.79353 317.45Q164.79353 317.075 164.91853 316.71564Q165.13728 316.1375 165.60603 315.575Q166.09041 315.0125 166.99666 314.27814Q168.40291 313.1219 168.88728 312.45Q169.38728 311.77814 169.38728 311.1844Q169.38728 310.5594 168.93416 310.1375Q168.48103 309.7 167.76228 309.7Q166.99666 309.7 166.54353 310.15314Q166.09041 310.60626 166.07478 311.41876L164.99666 311.3094Q165.10603 310.09064 165.82478 309.46564Q166.55916 308.825 167.79353 308.825Q169.02791 308.825 169.74666 309.5125Q170.46541 310.2 170.46541 311.21564Q170.46541 311.73126 170.24666 312.23126Q170.04353 312.71564 169.54353 313.27814Q169.05916 313.825 167.93416 314.77814Q166.98103 315.575 166.69978 315.8719Q166.43416 316.15314 166.26228 316.4344L170.48103 316.4344ZM175.30916 317.45L175.30916 315.3875L171.59041 315.3875L171.59041 314.41876L175.51228 308.85626L176.37166 308.85626L176.37166 314.41876L177.52791 314.41876L177.52791 315.3875L176.37166 315.3875L176.37166 317.45L175.30916 317.45ZM175.30916 314.41876L175.30916 310.5594L172.62166 314.41876L175.30916 314.41876ZM178.80916 314.8719L178.80916 313.8094L182.05916 313.8094L182.05916 314.8719L178.80916 314.8719ZM182.93416 313.21564Q182.93416 311.6844 183.24666 310.7625Q183.55916 309.825 184.16853 309.325Q184.79353 308.825 185.73103 308.825Q186.41853 308.825 186.93416 309.10626Q187.46541 309.3875 187.80916 309.91876Q188.15291 310.4344 188.34041 311.1844Q188.52791 311.9344 188.52791 313.21564Q188.52791 314.73126 188.21541 315.65314Q187.91853 316.575 187.29353 317.09064Q186.68416 317.59064 185.73103 317.59064Q184.49666 317.59064 183.77791 316.7Q182.93416 315.6375 182.93416 313.21564ZM184.01228 313.21564Q184.01228 315.325 184.51228 316.02814Q185.01228 316.73126 185.73103 316.73126Q186.46541 316.73126 186.94978 316.02814Q187.44978 315.325 187.44978 313.21564Q187.44978 311.09064 186.94978 310.40314Q186.46541 309.7 185.71541 309.7Q184.99666 309.7 184.55916 310.3094Q184.01228 311.09064 184.01228 313.21564ZM193.90291 317.45L192.85603 317.45L192.85603 310.73126Q192.46541 311.09064 191.84041 311.46564Q191.23103 311.825 190.74666 311.9969L190.74666 310.98126Q191.62166 310.5594 192.27791 309.98126Q192.94978 309.3875 193.23103 308.825L193.90291 308.825L193.90291 317.45ZM196.80916 314.8719L196.80916 313.8094L200.05916 313.8094L200.05916 314.8719L196.80916 314.8719ZM200.93416 313.21564Q200.93416 311.6844 201.24666 310.7625Q201.55916 309.825 202.16853 309.325Q202.79353 308.825 203.73103 308.825Q204.41853 308.825 204.93416 309.10626Q205.46541 309.3875 205.80916 309.91876Q206.15291 310.4344 206.34041 311.1844Q206.52791 311.9344 206.52791 313.21564Q206.52791 314.73126 206.21541 315.65314Q205.91853 316.575 205.29353 317.09064Q204.68416 317.59064 203.73103 317.59064Q202.49666 317.59064 201.77791 316.7Q200.93416 315.6375 200.93416 313.21564ZM202.01228 313.21564Q202.01228 315.325 202.51228 316.02814Q203.01228 316.73126 203.73103 316.73126Q204.46541 316.73126 204.94978 316.02814Q205.44978 315.325 205.44978 313.21564Q205.44978 311.09064 204.94978 310.40314Q204.46541 309.7 203.71541 309.7Q202.99666 309.7 202.55916 310.3094Q202.01228 311.09064 202.01228 313.21564ZM211.90291 317.45L210.85603 317.45L210.85603 310.73126Q210.46541 311.09064 209.84041 311.46564Q209.23103 311.825 208.74666 311.9969L208.74666 310.98126Q209.62166 310.5594 210.27791 309.98126Q210.94978 309.3875 211.23103 308.825L211.90291 308.825L211.90291 317.45Z" fill-rule="nonzero"/><path fill="#000000" d="M260.22516 316.4344L260.22516 317.45L254.53766 317.45Q254.53766 317.075 254.66266 316.71564Q254.88141 316.1375 255.35016 315.575Q255.83453 315.0125 256.74078 314.27814Q258.14703 313.1219 258.6314 312.45Q259.1314 311.77814 259.1314 311.1844Q259.1314 310.5594 258.67828 310.1375Q258.22516 309.7 257.5064 309.7Q256.74078 309.7 256.28766 310.15314Q255.83453 310.60626 255.81891 311.41876L254.74078 311.3094Q254.85016 310.09064 255.56891 309.46564Q256.30328 308.825 257.53766 308.825Q258.77203 308.825 259.49078 309.5125Q260.20953 310.2 260.20953 311.21564Q260.20953 311.73126 259.99078 312.23126Q259.78766 312.71564 259.28766 313.27814Q258.80328 313.825 257.67828 314.77814Q256.72516 315.575 256.4439 315.8719Q256.17828 316.15314 256.0064 316.4344L260.22516 316.4344ZM261.67828 313.21564Q261.67828 311.6844 261.99078 310.7625Q262.30328 309.825 262.91266 309.325Q263.53766 308.825 264.47516 308.825Q265.16266 308.825 265.67828 309.10626Q266.20953 309.3875 266.55328 309.91876Q266.89703 310.4344 267.08453 311.1844Q267.27203 311.9344 267.27203 313.21564Q267.27203 314.73126 266.95953 315.65314Q266.66266 316.575 266.03766 317.09064Q265.42828 317.59064 264.47516 317.59064Q263.24078 317.59064 262.52203 316.7Q261.67828 315.6375 261.67828 313.21564ZM262.7564 313.21564Q262.7564 315.325 263.2564 316.02814Q263.7564 316.73126 264.47516 316.73126Q265.20953 316.73126 265.6939 316.02814Q266.1939 315.325 266.1939 313.21564Q266.1939 311.09064 265.6939 310.40314Q265.20953 309.7 264.45953 309.7Q263.74078 309.7 263.30328 310.3094Q262.7564 311.09064 262.7564 313.21564ZM274.22516 316.4344L274.22516 317.45L268.53766 317.45Q268.53766 317.075 268.66266 316.71564Q268.8814 316.1375 269.35016 315.575Q269.83453 315.0125 270.74078 314.27814Q272.14703 313.1219 272.6314 312.45Q273.1314 311.77814 273.1314 311.1844Q273.1314 310.5594 272.67828 310.1375Q272.22516 309.7 271.5064 309.7Q270.74078 309.7 270.28766 310.15314Q269.83453 310.60626 269.8189 311.41876L268.74078 311.3094Q268.85016 310.09064 269.5689 309.46564Q270.30328 308.825 271.53766 308.825Q272.77203 308.825 273.49078 309.5125Q274.20953 310.2 274.20953 311.21564Q274.20953 311.73126 273.99078 312.23126Q273.78766 312.71564 273.28766 313.27814Q272.80328 313.825 271.67828 314.77814Q270.72516 315.575 270.4439 315.8719Q270.17828 316.15314 270.0064 316.4344L274.22516 316.4344ZM279.05328 317.45L279.05328 315.3875L275.33453 315.3875L275.33453 314.41876L279.2564 308.85626L280.11578 308.85626L280.11578 314.41876L281.27203 314.41876L281.27203 315.3875L280.11578 315.3875L280.11578 317.45L279.05328 317.45ZM279.05328 314.41876L279.05328 310.5594L276.36578 314.41876L279.05328 314.41876ZM282.55328 314.8719L282.55328 313.8094L285.80328 313.8094L285.80328 314.8719L282.55328 314.8719ZM286.67828 313.21564Q286.67828 311.6844 286.99078 310.7625Q287.30328 309.825 287.91266 309.325Q288.53766 308.825 289.47516 308.825Q290.16266 308.825 290.67828 309.10626Q291.20953 309.3875 291.55328 309.91876Q291.89703 310.4344 292.08453 311.1844Q292.27203 311.9344 292.27203 313.21564Q292.27203 314.73126 291.95953 315.65314Q291.66266 316.575 291.03766 317.09064Q290.42828 317.59064 289.47516 317.59064Q288.24078 317.59064 287.52203 316.7Q286.67828 315.6375 286.67828 313.21564ZM287.7564 313.21564Q287.7564 315.325 288.2564 316.02814Q288.7564 316.73126 289.47516 316.73126Q290.20953 316.73126 290.6939 316.02814Q291.1939 315.325 291.1939 313.21564Q291.1939 311.09064 290.6939 310.40314Q290.20953 309.7 289.45953 309.7Q288.74078 309.7 288.30328 310.3094Q287.7564 311.09064 287.7564 313.21564ZM293.74078 309.98126L293.74078 308.96564L299.30328 308.96564L299.30328 309.79376Q298.49078 310.66876 297.67828 312.1219Q296.8814 313.5594 296.4439 315.09064Q296.11578 316.16876 296.03766 317.45L294.9439 317.45Q294.95953 316.4344 295.33453 314.9969Q295.72516 313.5594 296.42828 312.23126Q297.14703 310.90314 297.95953 309.98126L293.74078 309.98126ZM300.55328 314.8719L300.55328 313.8094L303.80328 313.8094L303.80328 314.8719L300.55328 314.8719ZM304.67828 313.21564Q304.67828 311.6844 304.99078 310.7625Q305.30328 309.825 305.91266 309.325Q306.53766 308.825 307.47516 308.825Q308.16266 308.825 308.67828 309.10626Q309.20953 309.3875 309.55328 309.91876Q309.89703 310.4344 310.08453 311.1844Q310.27203 311.9344 310.27203 313.21564Q310.27203 314.73126 309.95953 315.65314Q309.66266 316.575 309.03766 317.09064Q308.42828 317.59064 307.47516 317.59064Q306.24078 317.59064 305.52203 316.7Q304.67828 315.6375 304.67828 313.21564ZM305.7564 313.21564Q305.7564 315.325 306.2564 316.02814Q306.7564 316.73126 307.47516 316.73126Q308.20953 316.73126 308.6939 316.02814Q309.1939 315.325 309.1939 313.21564Q309.1939 311.09064 308.6939 310.40314Q308.20953 309.7 307.45953 309.7Q306.74078 309.7 306.30328 310.3094Q305.7564 311.09064 305.7564 313.21564ZM315.64703 317.45L314.60016 317.45L314.60016 310.73126Q314.20953 311.09064 313.58453 311.46564Q312.97516 311.825 312.49078 311.9969L312.49078 310.98126Q313.36578 310.5594 314.02203 309.98126Q314.6939 309.3875 314.97516 308.825L315.64703 308.825L315.64703 317.45Z" fill-rule="nonzero"/><path fill="#000000" d="M365.1093 316.4344L365.1093 317.45L359.4218 317.45Q359.4218 317.075 359.5468 316.71564Q359.76556 316.1375 360.2343 315.575Q360.7187 315.0125 361.62494 314.27814Q363.0312 313.1219 363.51556 312.45Q364.01556 311.77814 364.01556 311.1844Q364.01556 310.5594 363.56244 310.1375Q363.1093 309.7 362.39056 309.7Q361.62494 309.7 361.1718 310.15314Q360.7187 310.60626 360.70306 311.41876L359.62494 311.3094Q359.7343 310.09064 360.45306 309.46564Q361.18744 308.825 362.4218 308.825Q363.6562 308.825 364.37494 309.5125Q365.0937 310.2 365.0937 311.21564Q365.0937 311.73126 364.87494 312.23126Q364.6718 312.71564 364.1718 313.27814Q363.68744 313.825 362.56244 314.77814Q361.6093 315.575 361.32806 315.8719Q361.06244 316.15314 360.89056 316.4344L365.1093 316.4344ZM366.56244 313.21564Q366.56244 311.6844 366.87494 310.7625Q367.18744 309.825 367.7968 309.325Q368.4218 308.825 369.3593 308.825Q370.0468 308.825 370.56244 309.10626Q371.0937 309.3875 371.43744 309.91876Q371.7812 310.4344 371.9687 311.1844Q372.1562 311.9344 372.1562 313.21564Q372.1562 314.73126 371.8437 315.65314Q371.5468 316.575 370.9218 317.09064Q370.31244 317.59064 369.3593 317.59064Q368.12494 317.59064 367.4062 316.7Q366.56244 315.6375 366.56244 313.21564ZM367.64056 313.21564Q367.64056 315.325 368.14056 316.02814Q368.64056 316.73126 369.3593 316.73126Q370.0937 316.73126 370.57806 316.02814Q371.07806 315.325 371.07806 313.21564Q371.07806 311.09064 370.57806 310.40314Q370.0937 309.7 369.3437 309.7Q368.62494 309.7 368.18744 310.3094Q367.64056 311.09064 367.64056 313.21564ZM379.1093 316.4344L379.1093 317.45L373.4218 317.45Q373.4218 317.075 373.5468 316.71564Q373.76556 316.1375 374.2343 315.575Q374.7187 315.0125 375.62494 314.27814Q377.0312 313.1219 377.51556 312.45Q378.01556 311.77814 378.01556 311.1844Q378.01556 310.5594 377.56244 310.1375Q377.1093 309.7 376.39056 309.7Q375.62494 309.7 375.1718 310.15314Q374.7187 310.60626 374.70306 311.41876L373.62494 311.3094Q373.7343 310.09064 374.45306 309.46564Q375.18744 308.825 376.4218 308.825Q377.6562 308.825 378.37494 309.5125Q379.0937 310.2 379.0937 311.21564Q379.0937 311.73126 378.87494 312.23126Q378.6718 312.71564 378.1718 313.27814Q377.68744 313.825 376.56244 314.77814Q375.6093 315.575 375.32806 315.8719Q375.06244 316.15314 374.89056 316.4344L379.1093 316.4344ZM380.56244 315.2L381.6718 315.10626Q381.7968 315.91876 382.2343 316.325Q382.68744 316.73126 383.32806 316.73126Q384.07806 316.73126 384.6093 316.15314Q385.14056 315.575 385.14056 314.6375Q385.14056 313.73126 384.62494 313.21564Q384.12494 312.6844 383.2968 312.6844Q382.7968 312.6844 382.37494 312.91876Q381.9687 313.15314 381.7343 313.5125L380.74994 313.3875L381.57806 308.98126L385.8593 308.98126L385.8593 309.98126L382.4218 309.98126L381.9687 312.29376Q382.7343 311.7469 383.57806 311.7469Q384.70306 311.7469 385.4687 312.52814Q386.24994 313.3094 386.24994 314.54376Q386.24994 315.7 385.57806 316.5594Q384.74994 317.59064 383.32806 317.59064Q382.1562 317.59064 381.4062 316.9344Q380.6718 316.27814 380.56244 315.2ZM387.43744 314.8719L387.43744 313.8094L390.68744 313.8094L390.68744 314.8719L387.43744 314.8719ZM391.56244 313.21564Q391.56244 311.6844 391.87494 310.7625Q392.18744 309.825 392.7968 309.325Q393.4218 308.825 394.3593 308.825Q395.0468 308.825 395.56244 309.10626Q396.0937 309.3875 396.43744 309.91876Q396.7812 310.4344 396.9687 311.1844Q397.1562 311.9344 397.1562 313.21564Q397.1562 314.73126 396.8437 315.65314Q396.5468 316.575 395.9218 317.09064Q395.31244 317.59064 394.3593 317.59064Q393.12494 317.59064 392.4062 316.7Q391.56244 315.6375 391.56244 313.21564ZM392.64056 313.21564Q392.64056 315.325 393.14056 316.02814Q393.64056 316.73126 394.3593 316.73126Q395.0937 316.73126 395.57806 316.02814Q396.07806 315.325 396.07806 313.21564Q396.07806 311.09064 395.57806 310.40314Q395.0937 309.7 394.3437 309.7Q393.62494 309.7 393.18744 310.3094Q392.64056 311.09064 392.64056 313.21564ZM402.5312 317.45L401.4843 317.45L401.4843 310.73126Q401.0937 311.09064 400.4687 311.46564Q399.8593 311.825 399.37494 311.9969L399.37494 310.98126Q400.24994 310.5594 400.9062 309.98126Q401.57806 309.3875 401.8593 308.825L402.5312 308.825L402.5312 317.45ZM405.43744 314.8719L405.43744 313.8094L408.68744 313.8094L408.68744 314.8719L405.43744 314.8719ZM409.56244 313.21564Q409.56244 311.6844 409.87494 310.7625Q410.18744 309.825 410.7968 309.325Q411.4218 308.825 412.3593 308.825Q413.0468 308.825 413.56244 309.10626Q414.0937 309.3875 414.43744 309.91876Q414.7812 310.4344 414.9687 311.1844Q415.1562 311.9344 415.1562 313.21564Q415.1562 314.73126 414.8437 315.65314Q414.5468 316.575 413.9218 317.09064Q413.31244 317.59064 412.3593 317.59064Q411.12494 317.59064 410.4062 316.7Q409.56244 315.6375 409.56244 313.21564ZM410.64056 313.21564Q410.64056 315.325 411.14056 316.02814Q411.64056 316.73126 412.3593 316.73126Q413.0937 316.73126 413.57806 316.02814Q414.07806 315.325 414.07806 313.21564Q414.07806 311.09064 413.57806 310.40314Q413.0937 309.7 412.3437 309.7Q411.62494 309.7 411.18744 310.3094Q410.64056 311.09064 410.64056 313.21564ZM420.5312 317.45L419.4843 317.45L419.4843 310.73126Q419.0937 311.09064 418.4687 311.46564Q417.8593 311.825 417.37494 311.9969L417.37494 310.98126Q418.24994 310.5594 418.9062 309.98126Q419.57806 309.3875 419.8593 308.825L420.5312 308.825L420.5312 317.45Z" fill-rule="nonzero"/><path fill="#000000" d="M468.28342 316.4344L468.28342 317.45L462.59592 317.45Q462.59592 317.075 462.72092 316.71564Q462.93967 316.1375 463.40842 315.575Q463.8928 315.0125 464.79904 314.27814Q466.2053 313.1219 466.68967 312.45Q467.18967 311.77814 467.18967 311.1844Q467.18967 310.5594 466.73654 310.1375Q466.28342 309.7 465.56467 309.7Q464.79904 309.7 464.34592 310.15314Q463.8928 310.60626 463.87717 311.41876L462.79904 311.3094Q462.90842 310.09064 463.62717 309.46564Q464.36154 308.825 465.59592 308.825Q466.8303 308.825 467.54904 309.5125Q468.2678 310.2 468.2678 311.21564Q468.2678 311.73126 468.04904 312.23126Q467.84592 312.71564 467.34592 313.27814Q466.86154 313.825 465.73654 314.77814Q464.78342 315.575 464.50217 315.8719Q464.23654 316.15314 464.06467 316.4344L468.28342 316.4344ZM469.73654 313.21564Q469.73654 311.6844 470.04904 310.7625Q470.36154 309.825 470.97092 309.325Q471.59592 308.825 472.53342 308.825Q473.22092 308.825 473.73654 309.10626Q474.2678 309.3875 474.61154 309.91876Q474.9553 310.4344 475.1428 311.1844Q475.3303 311.9344 475.3303 313.21564Q475.3303 314.73126 475.0178 315.65314Q474.72092 316.575 474.09592 317.09064Q473.48654 317.59064 472.53342 317.59064Q471.29904 317.59064 470.5803 316.7Q469.73654 315.6375 469.73654 313.21564ZM470.81467 313.21564Q470.81467 315.325 471.31467 316.02814Q471.81467 316.73126 472.53342 316.73126Q473.2678 316.73126 473.75217 316.02814Q474.25217 315.325 474.25217 313.21564Q474.25217 311.09064 473.75217 310.40314Q473.2678 309.7 472.5178 309.7Q471.79904 309.7 471.36154 310.3094Q470.81467 311.09064 470.81467 313.21564ZM482.28342 316.4344L482.28342 317.45L476.59592 317.45Q476.59592 317.075 476.72092 316.71564Q476.93967 316.1375 477.40842 315.575Q477.8928 315.0125 478.79904 314.27814Q480.2053 313.1219 480.68967 312.45Q481.18967 311.77814 481.18967 311.1844Q481.18967 310.5594 480.73654 310.1375Q480.28342 309.7 479.56467 309.7Q478.79904 309.7 478.34592 310.15314Q477.8928 310.60626 477.87717 311.41876L476.79904 311.3094Q476.90842 310.09064 477.62717 309.46564Q478.36154 308.825 479.59592 308.825Q480.8303 308.825 481.54904 309.5125Q482.2678 310.2 482.2678 311.21564Q482.2678 311.73126 482.04904 312.23126Q481.84592 312.71564 481.34592 313.27814Q480.86154 313.825 479.73654 314.77814Q478.78342 315.575 478.50217 315.8719Q478.23654 316.15314 478.06467 316.4344L482.28342 316.4344ZM483.73654 315.2L484.84592 315.10626Q484.97092 315.91876 485.40842 316.325Q485.86154 316.73126 486.50217 316.73126Q487.25217 316.73126 487.78342 316.15314Q488.31467 315.575 488.31467 314.6375Q488.31467 313.73126 487.79904 313.21564Q487.29904 312.6844 486.47092 312.6844Q485.97092 312.6844 485.54904 312.91876Q485.1428 313.15314 484.90842 313.5125L483.92404 313.3875L484.75217 308.98126L489.03342 308.98126L489.03342 309.98126L485.59592 309.98126L485.1428 312.29376Q485.90842 311.7469 486.75217 311.7469Q487.87717 311.7469 488.6428 312.52814Q489.42404 313.3094 489.42404 314.54376Q489.42404 315.7 488.75217 316.5594Q487.92404 317.59064 486.50217 317.59064Q485.3303 317.59064 484.5803 316.9344Q483.84592 316.27814 483.73654 315.2ZM490.61154 314.8719L490.61154 313.8094L493.86154 313.8094L493.86154 314.8719L490.61154 314.8719ZM494.73654 313.21564Q494.73654 311.6844 495.04904 310.7625Q495.36154 309.825 495.97092 309.325Q496.59592 308.825 497.53342 308.825Q498.22092 308.825 498.73654 309.10626Q499.2678 309.3875 499.61154 309.91876Q499.9553 310.4344 500.1428 311.1844Q500.3303 311.9344 500.3303 313.21564Q500.3303 314.73126 500.0178 315.65314Q499.72092 316.575 499.09592 317.09064Q498.48654 317.59064 497.53342 317.59064Q496.29904 317.59064 495.5803 316.7Q494.73654 315.6375 494.73654 313.21564ZM495.81467 313.21564Q495.81467 315.325 496.31467 316.02814Q496.81467 316.73126 497.53342 316.73126Q498.2678 316.73126 498.75217 316.02814Q499.25217 315.325 499.25217 313.21564Q499.25217 311.09064 498.75217 310.40314Q498.2678 309.7 497.5178 309.7Q496.79904 309.7 496.36154 310.3094Q495.81467 311.09064 495.81467 313.21564ZM501.79904 309.98126L501.79904 308.96564L507.36154 308.96564L507.36154 309.79376Q506.54904 310.66876 505.73654 312.1219Q504.93967 313.5594 504.50217 315.09064Q504.17404 316.16876 504.09592 317.45L503.00217 317.45Q503.0178 316.4344 503.3928 314.9969Q503.78342 313.5594 504.48654 312.23126Q505.2053 310.90314 506.0178 309.98126L501.79904 309.98126ZM508.61154 314.8719L508.61154 313.8094L511.86154 313.8094L511.86154 314.8719L508.61154 314.8719ZM512.7366 313.21564Q512.7366 311.6844 513.0491 310.7625Q513.3616 309.825 513.97095 309.325Q514.59595 308.825 515.53345 308.825Q516.22095 308.825 516.7366 309.10626Q517.2678 309.3875 517.6116 309.91876Q517.9553 310.4344 518.1428 311.1844Q518.3303 311.9344 518.3303 313.21564Q518.3303 314.73126 518.0178 315.65314Q517.72095 316.575 517.09595 317.09064Q516.4866 317.59064 515.53345 317.59064Q514.2991 317.59064 513.5803 316.7Q512.7366 315.6375 512.7366 313.21564ZM513.8147 313.21564Q513.8147 315.325 514.3147 316.02814Q514.8147 316.73126 515.53345 316.73126Q516.2678 316.73126 516.7522 316.02814Q517.2522 315.325 517.2522 313.21564Q517.2522 311.09064 516.7522 310.40314Q516.2678 309.7 515.5178 309.7Q514.7991 309.7 514.3616 310.3094Q513.8147 311.09064 513.8147 313.21564ZM523.7053 317.45L522.65845 317.45L522.65845 310.73126Q522.2678 311.09064 521.6428 311.46564Q521.03345 311.825 520.5491 311.9969L520.5491 310.98126Q521.4241 310.5594 522.0803 309.98126Q522.7522 309.3875 523.03345 308.825L523.7053 308.825L523.7053 317.45Z" fill-rule="nonzero"/><path fill="#757575" d="M26.8 31.940624L26.8 30.253124L32.8625 30.2375L32.8625 35.55Q31.45625 36.675 29.971874 37.2375Q28.4875 37.8 26.925 37.8Q24.815624 37.8 23.096874 36.89375Q21.378124 35.9875 20.4875 34.284374Q19.6125 32.565624 19.6125 30.45625Q19.6125 28.3625 20.4875 26.565624Q21.3625 24.753124 23.003124 23.878124Q24.64375 22.9875 26.784374 22.9875Q28.33125 22.9875 29.58125 23.4875Q30.846874 23.9875 31.55 24.89375Q32.26875 25.784374 32.64375 27.2375L30.940624 27.70625Q30.6125 26.6125 30.128124 25.9875Q29.659374 25.3625 28.76875 24.9875Q27.878124 24.6125 26.8 24.6125Q25.4875 24.6125 24.534374 25.003124Q23.596874 25.39375 23.01875 26.05Q22.440624 26.690624 22.1125 27.45625Q21.565624 28.784374 21.565624 30.346874Q21.565624 32.253124 22.221874 33.55Q22.89375 34.83125 24.14375 35.45625Q25.409374 36.08125 26.815624 36.08125Q28.05 36.08125 29.221874 35.6125Q30.39375 35.14375 31.003124 34.596874L31.003124 31.940624L26.8 31.940624ZM35.846874 37.55L35.846874 27.175L37.425 27.175L37.425 28.753124Q38.034374 27.64375 38.55 27.3Q39.065624 26.940624 39.675 26.940624Q40.565624 26.940624 41.4875 27.503124L40.878124 29.14375Q40.2375 28.753124 39.596874 28.753124Q39.01875 28.753124 38.55 29.1125Q38.096874 29.45625 37.89375 30.065624Q37.6125 31.003124 37.6125 32.1125L37.6125 37.55L35.846874 37.55ZM49.64375 36.26875Q48.659374 37.096874 47.753124 37.440624Q46.846874 37.784374 45.815624 37.784374Q44.1125 37.784374 43.190624 36.95625Q42.26875 36.1125 42.26875 34.815624Q42.26875 34.05 42.6125 33.425Q42.971874 32.8 43.534374 32.425Q44.096874 32.034374 44.8 31.83125Q45.315624 31.70625 46.3625 31.565624Q48.4875 31.315624 49.4875 30.971874Q49.503124 30.6125 49.503124 30.503124Q49.503124 29.440624 49.003124 28.9875Q48.33125 28.39375 47.003124 28.39375Q45.753124 28.39375 45.159374 28.83125Q44.58125 29.26875 44.3 30.378124L42.58125 30.14375Q42.815624 29.034374 43.346874 28.3625Q43.878124 27.675 44.89375 27.315624Q45.909374 26.940624 47.253124 26.940624Q48.58125 26.940624 49.409374 27.253124Q50.2375 27.565624 50.628124 28.05Q51.01875 28.51875 51.175 29.2375Q51.26875 29.690624 51.26875 30.8625L51.26875 33.20625Q51.26875 35.659374 51.378124 36.315624Q51.4875 36.95625 51.83125 37.55L49.9875 37.55Q49.721874 37.003124 49.64375 36.26875ZM49.4875 32.346874Q48.534374 32.7375 46.6125 33.003124Q45.534374 33.159374 45.08125 33.3625Q44.64375 33.55 44.39375 33.925Q44.14375 34.3 44.14375 34.76875Q44.14375 35.471874 44.675 35.940624Q45.20625 36.409374 46.2375 36.409374Q47.253124 36.409374 48.034374 35.971874Q48.83125 35.51875 49.20625 34.753124Q49.4875 34.14375 49.4875 32.9875L49.4875 32.346874ZM53.8625 41.51875L53.8625 27.175L55.471874 27.175L55.471874 28.51875Q56.034374 27.7375 56.7375 27.346874Q57.45625 26.940624 58.471874 26.940624Q59.8 26.940624 60.815624 27.628124Q61.83125 28.315624 62.346874 29.565624Q62.878124 30.8 62.878124 32.284374Q62.878124 33.878124 62.3 35.159374Q61.7375 36.425 60.64375 37.1125Q59.55 37.784374 58.346874 37.784374Q57.471874 37.784374 56.76875 37.409374Q56.08125 37.034374 55.628124 36.471874L55.628124 41.51875L53.8625 41.51875ZM55.45625 32.425Q55.45625 34.425 56.26875 35.378124Q57.08125 36.33125 58.2375 36.33125Q59.409374 36.33125 60.2375 35.346874Q61.08125 34.3625 61.08125 32.26875Q61.08125 30.3 60.253124 29.315624Q59.440624 28.315624 58.315624 28.315624Q57.190624 28.315624 56.315624 29.378124Q55.45625 30.425 55.45625 32.425ZM64.8625 37.55L64.8625 23.2375L66.62813 23.2375L66.62813 28.3625Q67.8625 26.940624 69.7375 26.940624Q70.87813 26.940624 71.72188 27.39375Q72.58125 27.846874 72.94063 28.659374Q73.31563 29.45625 73.31563 30.971874L73.31563 37.55L71.56563 37.55L71.56563 30.971874Q71.56563 29.659374 70.9875 29.065624Q70.40938 28.45625 69.37813 28.45625Q68.59688 28.45625 67.89375 28.8625Q67.20625 29.26875 66.90938 29.971874Q66.62813 30.659374 66.62813 31.878124L66.62813 37.55L64.8625 37.55ZM74.87813 25.253124L74.87813 23.2375L76.64375 23.2375L76.64375 25.253124L74.87813 25.253124ZM74.87813 37.55L74.87813 27.175L76.64375 27.175L76.64375 37.55L74.87813 37.55ZM82.70625 35.971874L82.95625 37.534374Q82.22188 37.690624 81.62813 37.690624Q80.675 37.690624 80.14375 37.39375Q79.62813 37.08125 79.40938 36.596874Q79.19063 36.096874 79.19063 34.51875L79.19063 28.55L77.90938 28.55L77.90938 27.175L79.19063 27.175L79.19063 24.6125L80.94063 23.55L80.94063 27.175L82.70625 27.175L82.70625 28.55L80.94063 28.55L80.94063 34.6125Q80.94063 35.3625 81.03438 35.58125Q81.12813 35.784374 81.33125 35.925Q81.55 36.05 81.94063 36.05Q82.22188 36.05 82.70625 35.971874ZM91.97188 34.20625L93.78438 34.440624Q93.3625 36.01875 92.19063 36.909374Q91.03438 37.784374 89.22188 37.784374Q86.95625 37.784374 85.6125 36.39375Q84.28438 34.9875 84.28438 32.45625Q84.28438 29.83125 85.62813 28.39375Q86.97188 26.940624 89.12813 26.940624Q91.20625 26.940624 92.51875 28.3625Q93.84688 29.76875 93.84688 32.346874Q93.84688 32.503124 93.83125 32.815624L86.09688 32.815624Q86.19063 34.51875 87.06563 35.425Q87.94063 36.33125 89.2375 36.33125Q90.20625 36.33125 90.87813 35.83125Q91.56563 35.315624 91.97188 34.20625ZM86.19063 31.3625L91.9875 31.3625Q91.87813 30.065624 91.33125 29.409374Q90.4875 28.39375 89.14375 28.39375Q87.94063 28.39375 87.1125 29.20625Q86.28438 30.003124 86.19063 31.3625ZM102.01875 37.55L102.01875 23.2375L103.90938 23.2375L103.90938 35.8625L110.95625 35.8625L110.95625 37.55L102.01875 37.55ZM119.97188 34.20625L121.78438 34.440624Q121.3625 36.01875 120.19063 36.909374Q119.03438 37.784374 117.22188 37.784374Q114.95625 37.784374 113.6125 36.39375Q112.28438 34.9875 112.28438 32.45625Q112.28438 29.83125 113.62813 28.39375Q114.97188 26.940624 117.12813 26.940624Q119.20625 26.940624 120.51875 28.3625Q121.84688 29.76875 121.84688 32.346874Q121.84688 32.503124 121.83125 32.815624L114.09688 32.815624Q114.19063 34.51875 115.06563 35.425Q115.94063 36.33125 117.2375 36.33125Q118.20625 36.33125 118.87813 35.83125Q119.56563 35.315624 119.97188 34.20625ZM114.19063 31.3625L119.9875 31.3625Q119.87813 30.065624 119.33125 29.409374Q118.4875 28.39375 117.14375 28.39375Q115.94063 28.39375 115.1125 29.20625Q114.28438 30.003124 114.19063 31.3625ZM130.64375 36.26875Q129.65938 37.096874 128.75313 37.440624Q127.84688 37.784374 126.81563 37.784374Q125.1125 37.784374 124.19063 36.95625Q123.26875 36.1125 123.26875 34.815624Q123.26875 34.05 123.6125 33.425Q123.97188 32.8 124.53438 32.425Q125.09688 32.034374 125.8 31.83125Q126.31563 31.70625 127.3625 31.565624Q129.4875 31.315624 130.4875 30.971874Q130.50313 30.6125 130.50313 30.503124Q130.50313 29.440624 130.00313 28.9875Q129.33125 28.39375 128.00313 28.39375Q126.75313 28.39375 126.15938 28.83125Q125.58125 29.26875 125.3 30.378124L123.58125 30.14375Q123.81563 29.034374 124.34688 28.3625Q124.87813 27.675 125.89375 27.315624Q126.90938 26.940624 128.25313 26.940624Q129.58125 26.940624 130.40938 27.253124Q131.2375 27.565624 131.62813 28.05Q132.01875 28.51875 132.175 29.2375Q132.26875 29.690624 132.26875 30.8625L132.26875 33.20625Q132.26875 35.659374 132.37813 36.315624Q132.4875 36.95625 132.83125 37.55L130.9875 37.55Q130.72188 37.003124 130.64375 36.26875ZM130.4875 32.346874Q129.53438 32.7375 127.6125 33.003124Q126.53438 33.159374 126.08125 33.3625Q125.64375 33.55 125.39375 33.925Q125.14375 34.3 125.14375 34.76875Q125.14375 35.471874 125.675 35.940624Q126.20625 36.409374 127.2375 36.409374Q128.25313 36.409374 129.03438 35.971874Q129.83125 35.51875 130.20625 34.753124Q130.4875 34.14375 130.4875 32.9875L130.4875 32.346874ZM134.84688 37.55L134.84688 27.175L136.425 27.175L136.425 28.753124Q137.03438 27.64375 137.55 27.3Q138.06563 26.940624 138.675 26.940624Q139.56563 26.940624 140.4875 27.503124L139.87813 29.14375Q139.2375 28.753124 138.59688 28.753124Q138.01875 28.753124 137.55 29.1125Q137.09688 29.45625 136.89375 30.065624Q136.6125 31.003124 136.6125 32.1125L136.6125 37.55L134.84688 37.55ZM141.8625 37.55L141.8625 27.175L143.45625 27.175L143.45625 28.659374Q144.59688 26.940624 146.75313 26.940624Q147.69063 26.940624 148.47188 27.284374Q149.26875 27.6125 149.65938 28.159374Q150.05 28.70625 150.20625 29.45625Q150.3 29.95625 150.3 31.175L150.3 37.55L148.53438 37.55L148.53438 31.2375Q148.53438 30.159374 148.33125 29.628124Q148.12813 29.096874 147.59688 28.784374Q147.08125 28.471874 146.37813 28.471874Q145.25313 28.471874 144.44063 29.190624Q143.62813 29.89375 143.62813 31.878124L143.62813 37.55L141.8625 37.55ZM151.87813 25.253124L151.87813 23.2375L153.64375 23.2375L153.64375 25.253124L151.87813 25.253124ZM151.87813 37.55L151.87813 27.175L153.64375 27.175L153.64375 37.55L151.87813 37.55ZM155.8625 37.55L155.8625 27.175L157.45625 27.175L157.45625 28.659374Q158.59688 26.940624 160.75313 26.940624Q161.69063 26.940624 162.47188 27.284374Q163.26875 27.6125 163.65938 28.159374Q164.05 28.70625 164.20625 29.45625Q164.3 29.95625 164.3 31.175L164.3 37.55L162.53438 37.55L162.53438 31.2375Q162.53438 30.159374 162.33125 29.628124Q162.12813 29.096874 161.59688 28.784374Q161.08125 28.471874 160.37813 28.471874Q159.25313 28.471874 158.44063 29.190624Q157.62813 29.89375 157.62813 31.878124L157.62813 37.55L155.8625 37.55ZM165.55 38.409374L167.25313 38.659374Q167.3625 39.45625 167.84688 39.815624Q168.50313 40.3 169.64375 40.3Q170.8625 40.3 171.51875 39.815624Q172.19063 39.33125 172.425 38.45625Q172.56563 37.909374 172.55 36.190624Q171.39375 37.55 169.675 37.55Q167.53438 37.55 166.3625 36.003124Q165.19063 34.45625 165.19063 32.3Q165.19063 30.815624 165.72188 29.565624Q166.26875 28.315624 167.28438 27.628124Q168.31563 26.940624 169.69063 26.940624Q171.51875 26.940624 172.72188 28.425L172.72188 27.175L174.33125 27.175L174.33125 36.14375Q174.33125 38.565624 173.83125 39.565624Q173.34688 40.58125 172.26875 41.159374Q171.20625 41.753124 169.64375 41.753124Q167.8 41.753124 166.64375 40.925Q165.50313 40.096874 165.55 38.409374ZM167.00313 32.175Q167.00313 34.221874 167.81563 35.159374Q168.62813 36.096874 169.84688 36.096874Q171.05 36.096874 171.8625 35.159374Q172.69063 34.221874 172.69063 32.2375Q172.69063 30.33125 171.84688 29.3625Q171.00313 28.39375 169.81563 28.39375Q168.64375 28.39375 167.81563 29.346874Q167.00313 30.3 167.00313 32.175ZM193.31563 32.534374L195.20625 33.003124Q194.6125 35.346874 193.06563 36.58125Q191.51875 37.8 189.26875 37.8Q186.95625 37.8 185.50313 36.8625Q184.06563 35.909374 183.3 34.128124Q182.55 32.33125 182.55 30.284374Q182.55 28.05 183.39375 26.39375Q184.25313 24.721874 185.83125 23.8625Q187.40938 22.9875 189.3 22.9875Q191.45625 22.9875 192.90938 24.08125Q194.37813 25.175 194.95625 27.159374L193.09688 27.596874Q192.59688 26.034374 191.64375 25.33125Q190.70625 24.6125 189.26875 24.6125Q187.6125 24.6125 186.50313 25.409374Q185.39375 26.190624 184.94063 27.534374Q184.50313 28.8625 184.50313 30.26875Q184.50313 32.096874 185.03438 33.471874Q185.56563 34.83125 186.69063 35.503124Q187.81563 36.175 189.1125 36.175Q190.70625 36.175 191.81563 35.253124Q192.925 34.33125 193.31563 32.534374ZM203.65938 37.55L203.65938 36.01875Q202.45625 37.784374 200.37813 37.784374Q199.45625 37.784374 198.65938 37.440624Q197.8625 37.08125 197.47188 36.55Q197.09688 36.01875 196.94063 35.2375Q196.83125 34.721874 196.83125 33.596874L196.83125 27.175L198.58125 27.175L198.58125 32.925Q198.58125 34.3 198.69063 34.784374Q198.8625 35.471874 199.39375 35.878124Q199.94063 36.26875 200.72188 36.26875Q201.51875 36.26875 202.20625 35.8625Q202.90938 35.45625 203.19063 34.76875Q203.4875 34.065624 203.4875 32.7375L203.4875 27.175L205.2375 27.175L205.2375 37.55L203.65938 37.55ZM206.84688 37.55L206.84688 27.175L208.425 27.175L208.425 28.753124Q209.03438 27.64375 209.55 27.3Q210.06563 26.940624 210.675 26.940624Q211.56563 26.940624 212.4875 27.503124L211.87813 29.14375Q211.2375 28.753124 210.59688 28.753124Q210.01875 28.753124 209.55 29.1125Q209.09688 29.45625 208.89375 30.065624Q208.6125 31.003124 208.6125 32.1125L208.6125 37.55L206.84688 37.55ZM216.75313 37.55L212.8 27.175L214.65938 27.175L216.89375 33.39375Q217.25313 34.39375 217.55 35.471874Q217.78438 34.659374 218.20625 33.503124L220.50313 27.175L222.31563 27.175L218.39375 37.55L216.75313 37.55ZM229.97188 34.20625L231.78438 34.440624Q231.3625 36.01875 230.19063 36.909374Q229.03438 37.784374 227.22188 37.784374Q224.95625 37.784374 223.6125 36.39375Q222.28438 34.9875 222.28438 32.45625Q222.28438 29.83125 223.62813 28.39375Q224.97188 26.940624 227.12813 26.940624Q229.20625 26.940624 230.51875 28.3625Q231.84688 29.76875 231.84688 32.346874Q231.84688 32.503124 231.83125 32.815624L224.09688 32.815624Q224.19063 34.51875 225.06563 35.425Q225.94063 36.33125 227.2375 36.33125Q228.20625 36.33125 228.87813 35.83125Q229.56563 35.315624 229.97188 34.20625ZM224.19063 31.3625L229.9875 31.3625Q229.87813 30.065624 229.33125 29.409374Q228.4875 28.39375 227.14375 28.39375Q225.94063 28.39375 225.1125 29.20625Q224.28438 30.003124 224.19063 31.3625Z" fill-rule="nonzero"/></svg>